<?xml version="1.0" encoding="UTF-8"?>
<!-- Generator: Adobe Illustrator 22.0.0, SVG Export Plug-In . SVG Version: 6.00 Build 0)  -->
<svg id="logo-SiolNET" width="383.6" height="76" version="1.1" viewBox="0 0 191.8 38" xml:space="preserve" xmlns="http://www.w3.org/2000/svg" xmlns:cc="http://creativecommons.org/ns#" xmlns:dc="http://purl.org/dc/elements/1.1/" xmlns:rdf="http://www.w3.org/1999/02/22-rdf-syntax-ns#"><metadata><rdf:RDF><cc:Work rdf:about=""><dc:format>image/svg+xml</dc:format><dc:type rdf:resource="http://purl.org/dc/dcmitype/StillImage"/><dc:title/></cc:Work></rdf:RDF></metadata>

<g transform="translate(-11.2,-14.2)">
	<path class="st0" d="m77.9 38.6c0-5.4-1.9-8.6-5.5-8.6-3.7 0-5.5 3.2-5.5 8.6s1.9 8.5 5.5 8.5 5.5-3.2 5.5-8.5m114.2-19.8h-10.1v32.5h-2.8v-32.5h-10.1v-2.7h23zm-27.6 32.5h-21.6v-35.2h21.6v2.8h-18.9v13.5h13.3v2.8h-13.3v13.5h18.9zm-29.1 0h-2.8l-19.3-30.2v30.3h-2.8v-35.3h2.4l19.6 30.8v-30.8h2.8c0.1 0 0.1 35.2 0.1 35.2zm-31.6 0h-14.6v-5.2l3.6-0.2v-23.9l-3.7 0.8v-5.7l9.5-2c0.8-0.2 1.6 0.1 1.6 1.2v29.6l3.6 0.2v5.2zm-17.9-12.7c0 9-6.3 13.6-13.5 13.6s-13.5-4.6-13.5-13.6 6.4-13.8 13.5-13.8c7.3 0 13.5 5.1 13.5 13.8m-30 12.7h-14.6v-5.2l3.6-0.2v-14.1l-3.7 0.8v-5.3l9.5-2c0.9-0.2 1.7 0.1 1.7 1.2v19.4l3.5 0.2v5.2zm-3-32.9c0 2.3-1.9 4.2-4.3 4.2s-4.4-1.9-4.4-4.2 2-4.2 4.3-4.2c2.5 0 4.4 1.9 4.4 4.2m-34 5.4c0 3 3.1 3.9 7.6 5.4 5.9 2 10.8 4.4 10.8 11.2 0 7.6-6.3 11.6-12.1 11.6-3.9 0-6.5-1.1-8.3-3l-0.7 2.3h-5v-11.6h4.7c1.2 4.8 5.1 7.3 8.2 7.3 2.9 0 5.1-1.7 5.1-4.3 0-2.7-2.8-3.7-8.2-5.6-5.8-2-9.8-5.3-9.8-11.1 0-6.9 5.5-10.6 11.1-10.6 3.5 0 6.1 1.2 7.8 2.8l0.7-2.3h4.9c0 3.8-0.5 7.2-2.2 10h-3.1c-1-3.4-3.5-5.6-7-5.6-2.7 0.1-4.5 1.3-4.5 3.5m184.1 23.2c0 2.6-2.1 4.7-4.7 4.7s-4.7-2.1-4.7-4.7 2.1-4.7 4.7-4.7 4.7 2.1 4.7 4.7" fill="#424193" fill-opacity=".94118"/>
	
</g>
</svg>
