<?xml version="1.0" standalone="no"?>
<!DOCTYPE svg PUBLIC "-//W3C//DTD SVG 20010904//EN"
 "http://www.w3.org/TR/2001/REC-SVG-20010904/DTD/svg10.dtd">
<svg version="1.0" xmlns="http://www.w3.org/2000/svg"
 width="320.000000pt" height="320.000000pt" viewBox="0 0 320.000000 320.000000"
 preserveAspectRatio="xMidYMid meet">
<metadata>
Created by potrace 1.14, written by Peter Selinger 2001-2017
</metadata>
<g transform="translate(0.000000,320.000000) scale(0.100000,-0.100000)"
fill="#000000" stroke="none">
<path d="M23 3178 l-23 -11 0 -720 c0 -638 2 -718 15 -707 8 7 15 8 15 3 0 -5
9 -9 20 -10 11 -1 18 2 15 8 -4 5 3 6 17 1 28 -9 49 -9 65 1 6 4 14 3 18 -3 3
-5 11 -10 16 -10 6 0 7 4 4 10 -4 6 2 7 17 2 28 -9 49 -9 65 1 6 4 14 3 18 -3
9 -15 28 -12 19 3 -5 9 -4 9 6 0 10 -9 17 -10 27 -2 7 7 13 7 13 2 0 -5 9 -9
20 -10 11 -1 18 2 15 8 -4 5 3 6 17 1 28 -9 49 -9 65 1 6 4 14 3 18 -3 3 -5
11 -10 16 -10 6 0 7 4 4 10 -4 6 2 7 17 2 28 -9 49 -9 65 1 6 4 14 3 18 -3 3
-5 11 -10 16 -10 6 0 7 6 3 13 -6 9 -5 9 7 0 12 -10 18 -10 27 -1 7 7 12 8 12
2 0 -5 9 -10 20 -11 11 -1 18 2 15 8 -4 5 3 6 17 1 28 -9 49 -9 65 1 6 4 14 3
18 -3 3 -5 11 -10 16 -10 6 0 7 4 4 10 -4 6 2 7 17 2 28 -9 49 -9 65 1 6 4 14
3 18 -3 3 -5 11 -10 16 -10 6 0 7 6 3 13 -6 9 -5 9 7 0 12 -10 18 -10 27 -1 7
7 12 8 12 2 0 -5 9 -10 20 -11 11 -1 18 2 15 8 -4 5 3 6 17 1 28 -9 49 -9 65
1 6 4 14 3 18 -3 3 -5 11 -10 16 -10 6 0 7 4 4 10 -4 6 2 7 17 2 28 -9 49 -9
65 1 6 4 14 3 18 -3 3 -5 11 -10 16 -10 6 0 7 4 4 10 -4 6 2 7 17 1 14 -5 31
-5 40 0 10 5 19 5 22 0 6 -9 54 -7 63 3 4 3 12 1 20 -5 10 -9 17 -8 28 1 8 7
15 8 15 3 0 -5 9 -9 20 -10 11 -1 18 2 15 8 -4 5 3 6 17 1 28 -9 49 -9 65 1 6
4 14 3 18 -3 3 -5 11 -10 16 -10 6 0 7 4 4 10 -4 6 2 7 17 2 28 -9 49 -9 65 1
6 4 14 3 18 -3 3 -5 11 -10 16 -10 6 0 7 4 4 10 -4 6 2 7 18 1 13 -5 30 -5 37
-1 8 5 19 6 25 2 14 -9 37 -9 57 0 9 5 19 4 22 0 6 -10 68 -8 84 2 6 3 13 2
17 -4 3 -5 11 -10 16 -10 6 0 7 4 4 10 -4 6 2 7 17 2 29 -9 89 -9 105 1 6 4
14 3 18 -3 3 -5 11 -10 16 -10 6 0 7 4 4 10 -4 6 2 7 17 2 27 -9 70 -8 86 2 6
3 13 2 16 -2 6 -10 54 -8 63 2 4 3 12 1 20 -5 10 -9 17 -8 28 1 8 7 15 8 15 3
0 -5 9 -9 20 -10 11 -1 18 2 15 8 -4 5 3 6 17 1 28 -9 49 -9 65 1 6 4 14 3 18
-3 3 -5 11 -10 16 -10 6 0 7 4 4 10 -4 6 2 7 17 2 28 -9 49 -9 65 1 6 4 14 3
18 -3 3 -5 11 -10 16 -10 6 0 7 4 4 10 -4 6 2 7 18 1 13 -5 30 -5 37 -1 8 5
19 6 25 2 14 -9 37 -9 57 0 9 5 19 4 22 0 6 -10 68 -8 86 3 9 5 11 4 6 -3 -9
-15 -1 -15 23 -2 14 7 20 27 26 77 4 37 8 77 10 88 2 11 7 47 11 80 3 33 8 69
10 80 3 11 7 40 10 65 2 25 6 56 9 70 5 35 23 167 30 220 3 25 10 77 15 115 6
39 12 86 14 105 3 19 5 35 6 35 1 0 3 16 4 35 2 19 7 58 11 85 4 28 9 61 10
75 2 14 4 25 5 25 2 0 7 44 14 110 4 50 16 125 21 145 3 9 -6 20 -20 27 -14 6
-23 7 -20 3 3 -4 -19 -8 -49 -7 -30 1 -53 4 -51 8 2 3 -2 6 -10 6 -8 0 -12 -4
-10 -8 3 -4 -19 -7 -49 -6 -30 1 -53 4 -51 8 2 3 -2 6 -10 6 -8 0 -12 -4 -10
-8 3 -4 -19 -7 -49 -6 -30 1 -53 4 -51 8 2 3 -2 6 -10 6 -8 0 -12 -4 -10 -8 3
-4 -19 -7 -49 -6 -30 1 -53 4 -51 8 2 3 -2 6 -10 6 -8 0 -12 -4 -10 -8 3 -4
-19 -7 -49 -6 -30 1 -53 4 -51 8 2 3 -2 6 -10 6 -8 0 -12 -4 -10 -8 3 -4 -19
-7 -49 -6 -30 1 -53 4 -51 8 2 3 -2 6 -10 6 -8 0 -12 -4 -10 -8 3 -4 -19 -7
-49 -6 -30 1 -53 4 -51 8 2 3 -2 6 -10 6 -8 0 -12 -4 -10 -8 3 -4 -19 -7 -49
-6 -30 1 -53 4 -51 8 2 3 -2 6 -10 6 -8 0 -12 -4 -10 -8 3 -4 -19 -7 -49 -6
-30 1 -53 4 -51 8 2 3 -2 6 -10 6 -8 0 -12 -4 -10 -8 3 -4 -19 -7 -49 -6 -30
1 -53 4 -51 8 2 3 -2 6 -10 6 -8 0 -12 -4 -10 -8 3 -4 -19 -7 -49 -6 -30 1
-53 4 -51 8 2 3 -2 6 -10 6 -8 0 -12 -4 -10 -8 3 -4 -19 -7 -49 -6 -30 1 -53
4 -51 8 2 3 -2 6 -10 6 -8 0 -12 -4 -10 -8 3 -4 -19 -7 -49 -6 -30 1 -53 4
-51 8 2 3 -2 6 -10 6 -8 0 -12 -4 -10 -8 3 -4 -19 -7 -49 -6 -30 1 -53 4 -51
8 2 3 -2 6 -10 6 -8 0 -12 -4 -10 -8 3 -4 -19 -7 -49 -6 -30 1 -53 4 -51 8 2
3 -2 6 -10 6 -8 0 -12 -4 -10 -8 3 -4 -19 -7 -49 -6 -30 1 -53 4 -51 8 2 3 -2
6 -10 6 -8 0 -12 -4 -10 -8 3 -4 -19 -7 -49 -6 -30 1 -53 4 -51 8 2 3 -2 6
-10 6 -8 0 -12 -4 -10 -8 3 -4 -19 -7 -49 -6 -30 1 -53 4 -51 8 2 3 -2 6 -10
6 -8 0 -12 -4 -10 -8 3 -4 -19 -7 -49 -6 -30 1 -53 4 -51 8 2 3 -2 6 -10 6 -8
0 -12 -4 -10 -8 3 -4 -19 -7 -49 -6 -30 1 -53 4 -51 8 2 3 -2 6 -10 6 -8 0
-12 -4 -10 -8 3 -4 -19 -7 -49 -6 -30 1 -53 4 -51 8 2 3 -2 6 -10 6 -8 0 -12
-4 -10 -8 3 -4 -19 -7 -49 -6 -30 1 -53 4 -51 8 2 3 -2 6 -10 6 -8 0 -12 -4
-10 -8 3 -4 -19 -7 -49 -6 -30 1 -53 4 -51 8 2 3 -2 6 -10 6 -8 0 -12 -4 -10
-8 3 -4 -19 -7 -49 -6 -30 1 -53 4 -51 8 2 3 -2 6 -10 6 -8 0 -12 -4 -10 -8 3
-4 -19 -7 -49 -6 -30 1 -53 4 -51 8 2 3 -2 6 -10 6 -8 0 -12 -4 -10 -8 3 -4
-19 -7 -49 -6 -30 1 -52 5 -50 9 6 10 5 9 -23 -4z"/>
<path d="M120 1473 c0 -7 -18 -10 -50 -9 -27 2 -51 0 -51 -3 -6 -24 -3 -1414
2 -1423 9 -15 69 -18 69 -4 0 6 4 5 9 -3 6 -9 11 -10 15 -2 4 6 12 9 17 5 19
-11 79 -12 79 -1 0 8 3 7 9 -1 4 -8 12 -14 16 -14 4 0 12 6 16 14 7 11 9 11 9
-1 0 -10 3 -11 13 -2 8 6 16 8 19 5 12 -11 78 -12 78 -1 0 8 3 7 9 -1 4 -8 12
-14 16 -14 4 0 12 6 16 14 7 11 9 11 9 -1 0 -10 3 -11 13 -2 8 6 16 8 19 5 12
-11 78 -12 78 -1 0 8 3 7 9 -1 4 -8 12 -14 16 -14 4 0 12 6 16 14 7 11 9 11 9
-1 0 -10 3 -11 13 -2 8 6 17 8 20 5 7 -7 1325 -9 1331 -3 2 2 7 28 10 58 4 29
11 85 17 125 19 132 22 161 23 193 1 18 3 33 6 33 3 0 6 8 6 18 1 29 14 136
19 152 2 8 7 38 10 65 3 28 12 101 21 164 8 62 16 122 17 132 1 10 4 19 7 19
3 0 5 17 5 38 0 34 6 87 19 167 3 17 7 46 10 65 28 212 28 202 -12 206 -25 3
-31 1 -26 -9 5 -7 1 -7 -10 2 -15 13 -19 13 -27 0 -5 -8 -9 -9 -9 -4 0 12
-218 14 -237 2 -6 -4 -14 -3 -17 1 -6 10 -86 9 -103 -1 -6 -4 -14 -4 -17 1 -6
10 -166 9 -183 -1 -6 -4 -14 -3 -17 1 -6 10 -86 9 -103 -1 -6 -4 -14 -3 -17 1
-3 5 -40 8 -83 6 -51 -1 -80 2 -85 9 -5 8 -8 8 -8 1 0 -7 -29 -10 -81 -9 -44
0 -83 -3 -86 -8 -2 -4 -10 -4 -16 1 -14 10 -87 10 -104 -1 -6 -4 -14 -3 -17 1
-3 5 -41 8 -86 6 -56 -2 -80 1 -80 9 0 8 -3 9 -8 1 -10 -14 -145 -14 -154 0
-5 8 -8 8 -8 0 0 -7 -29 -10 -81 -9 -44 0 -83 -3 -86 -8 -2 -4 -10 -4 -16 1
-14 10 -87 10 -104 -1 -6 -4 -14 -3 -18 2 -3 6 -22 8 -42 5 -23 -3 -40 0 -45
8 -5 9 -8 9 -8 1z"/>
</g>
</svg>
